<svg width="16" height="13" viewBox="0 0 16 13" fill="none" xmlns="http://www.w3.org/2000/svg">
<path d="M1.25 5.75C1.22656 5.75 1.22656 5.75 1.22656 5.75C0.828125 5.75 0.5 6.10156 0.5 6.5V9.5C0.5 9.52344 0.476562 9.52344 0.476562 9.52344C0.476562 9.92188 0.828125 10.25 1.22656 10.25H1.25H2V5.75H1.25ZM13.25 4.625C13.25 3.59375 12.4062 2.75 11.375 2.75H8.75V1.25C8.75 0.851562 8.39844 0.5 8 0.5C7.57812 0.5 7.25 0.851562 7.25 1.25V2.75H4.625C4.60156 2.75 4.60156 2.75 4.60156 2.75C3.57031 2.75 2.75 3.59375 2.75 4.625V11C2.75 11.8438 3.40625 12.5 4.25 12.5H11.75C12.5703 12.5 13.2266 11.8438 13.25 11V4.625ZM6.6875 6.5C6.6875 7.03906 6.26562 7.4375 5.75 7.4375C5.21094 7.4375 4.8125 7.03906 4.8125 6.5C4.8125 5.98438 5.21094 5.5625 5.75 5.5625C6.26562 5.5625 6.6875 5.98438 6.6875 6.5ZM6.5 9.5V10.25H5V9.5H6.5ZM8.75 9.5V10.25H7.25V9.5H8.75ZM11.1875 6.5C11.1875 7.03906 10.7656 7.4375 10.25 7.4375C9.71094 7.4375 9.3125 7.03906 9.3125 6.5C9.3125 5.98438 9.71094 5.5625 10.25 5.5625C10.7656 5.5625 11.1875 5.98438 11.1875 6.5ZM11 9.5V10.25H9.5V9.5H11ZM15.5 6.5C15.5 6.10156 15.1484 5.75 14.75 5.75H14V10.25H14.75V10.2734C15.1484 10.2734 15.5 9.92188 15.5 9.52344V9.5V6.5Z" fill="#00957B"/>
</svg>
