<svg width="16" height="13" viewBox="0 0 16 13" fill="none" xmlns="http://www.w3.org/2000/svg">
<path d="M1.75 5.75C1.72656 5.75 1.72656 5.75 1.72656 5.75C1.32812 5.75 1 6.10156 1 6.5V9.5C1 9.52344 0.976562 9.52344 0.976562 9.52344C0.976562 9.92188 1.32812 10.25 1.72656 10.25H1.75H2.5V5.75H1.75ZM13.75 4.625C13.75 3.59375 12.9062 2.75 11.875 2.75H9.25V1.25C9.25 0.851562 8.89844 0.5 8.5 0.5C8.07812 0.5 7.75 0.851562 7.75 1.25V2.75H5.125C5.10156 2.75 5.10156 2.75 5.10156 2.75C4.07031 2.75 3.25 3.59375 3.25 4.625V11C3.25 11.8438 3.90625 12.5 4.75 12.5H12.25C13.0703 12.5 13.7266 11.8438 13.75 11V4.625ZM7.1875 6.5C7.1875 7.03906 6.76562 7.4375 6.25 7.4375C5.71094 7.4375 5.3125 7.03906 5.3125 6.5C5.3125 5.98438 5.71094 5.5625 6.25 5.5625C6.76562 5.5625 7.1875 5.98438 7.1875 6.5ZM7 9.5V10.25H5.5V9.5H7ZM9.25 9.5V10.25H7.75V9.5H9.25ZM11.6875 6.5C11.6875 7.03906 11.2656 7.4375 10.75 7.4375C10.2109 7.4375 9.8125 7.03906 9.8125 6.5C9.8125 5.98438 10.2109 5.5625 10.75 5.5625C11.2656 5.5625 11.6875 5.98438 11.6875 6.5ZM11.5 9.5V10.25H10V9.5H11.5ZM16 6.5C16 6.10156 15.6484 5.75 15.25 5.75H14.5V10.25H15.25V10.2734C15.6484 10.2734 16 9.92188 16 9.52344V9.5V6.5Z" fill="#7B5DE9"/>
</svg>
