<svg width="14" height="15" viewBox="0 0 14 15" fill="none" xmlns="http://www.w3.org/2000/svg">
<path d="M9.625 13H5.03125C4.18359 13 3.5 12.3164 3.5 11.4688V3.375H1.53125C1.14844 3.375 0.875 3.67578 0.875 4.03125V14.0938C0.875 14.4766 1.14844 14.75 1.53125 14.75H8.96875C9.32422 14.75 9.625 14.4766 9.625 14.0938V13ZM9.625 3.59375V0.75H5.03125C4.64844 0.75 4.375 1.05078 4.375 1.40625V11.4688C4.375 11.8516 4.64844 12.125 5.03125 12.125H12.4688C12.8242 12.125 13.125 11.8516 13.125 11.4688V4.25H10.2812C9.89844 4.25 9.625 3.97656 9.625 3.59375ZM12.9062 2.74609L11.1289 0.96875C10.9922 0.832031 10.8281 0.75 10.6641 0.75H10.5V3.375H13.125V3.21094C13.125 3.04688 13.043 2.88281 12.9062 2.74609Z" fill="#EB71FF"/>
</svg>
