<svg width="18" height="15" viewBox="0 0 18 15" fill="none" xmlns="http://www.w3.org/2000/svg">
<path d="M1.125 6.875C1.09766 6.875 1.09766 6.875 1.09766 6.875C0.632812 6.875 0.25 7.28516 0.25 7.75V11.25C0.25 11.2773 0.222656 11.2773 0.222656 11.2773C0.222656 11.7422 0.632812 12.125 1.09766 12.125H1.125H2V6.875H1.125ZM15.125 5.5625C15.125 4.35938 14.1406 3.375 12.9375 3.375H9.875V1.625C9.875 1.16016 9.46484 0.75 9 0.75C8.50781 0.75 8.125 1.16016 8.125 1.625V3.375H5.0625C5.03516 3.375 5.03516 3.375 5.03516 3.375C3.83203 3.375 2.875 4.35938 2.875 5.5625V13C2.875 13.9844 3.64062 14.75 4.625 14.75H13.375C14.332 14.75 15.0977 13.9844 15.125 13V5.5625ZM7.46875 7.75C7.46875 8.37891 6.97656 8.84375 6.375 8.84375C5.74609 8.84375 5.28125 8.37891 5.28125 7.75C5.28125 7.14844 5.74609 6.65625 6.375 6.65625C6.97656 6.65625 7.46875 7.14844 7.46875 7.75ZM7.25 11.25V12.125H5.5V11.25H7.25ZM9.875 11.25V12.125H8.125V11.25H9.875ZM12.7188 7.75C12.7188 8.37891 12.2266 8.84375 11.625 8.84375C10.9961 8.84375 10.5312 8.37891 10.5312 7.75C10.5312 7.14844 10.9961 6.65625 11.625 6.65625C12.2266 6.65625 12.7188 7.14844 12.7188 7.75ZM12.5 11.25V12.125H10.75V11.25H12.5ZM17.75 7.75C17.75 7.28516 17.3398 6.875 16.875 6.875H16V12.125H16.875V12.1523C17.3398 12.1523 17.75 11.7422 17.75 11.2773V11.25V7.75Z" fill="#3DC4EF"/>
</svg>
