<svg width="14" height="13" viewBox="0 0 14 13" fill="none" xmlns="http://www.w3.org/2000/svg">
<path d="M13.125 4.125C13.5898 4.125 14 3.74219 14 3.25V1.5C14 1.03516 13.5898 0.625 13.125 0.625H0.875C0.382812 0.625 0 1.03516 0 1.5V3.25C0 3.74219 0.382812 4.125 0.875 4.125H13.125ZM11.8125 1.71875C12.168 1.71875 12.4688 2.01953 12.4688 2.375C12.4688 2.75781 12.168 3.03125 11.8125 3.03125C11.4297 3.03125 11.1562 2.75781 11.1562 2.375C11.1562 2.01953 11.4297 1.71875 11.8125 1.71875ZM10.0625 1.71875C10.418 1.71875 10.7188 2.01953 10.7188 2.375C10.7188 2.75781 10.418 3.03125 10.0625 3.03125C9.67969 3.03125 9.40625 2.75781 9.40625 2.375C9.40625 2.01953 9.67969 1.71875 10.0625 1.71875ZM13.125 8.5C13.5898 8.5 14 8.11719 14 7.625V5.875C14 5.41016 13.5898 5 13.125 5H0.875C0.382812 5 0 5.41016 0 5.875V7.625C0 8.11719 0.382812 8.5 0.875 8.5H13.125ZM11.8125 6.09375C12.168 6.09375 12.4688 6.39453 12.4688 6.75C12.4688 7.13281 12.168 7.40625 11.8125 7.40625C11.4297 7.40625 11.1562 7.13281 11.1562 6.75C11.1562 6.39453 11.4297 6.09375 11.8125 6.09375ZM10.0625 6.09375C10.418 6.09375 10.7188 6.39453 10.7188 6.75C10.7188 7.13281 10.418 7.40625 10.0625 7.40625C9.67969 7.40625 9.40625 7.13281 9.40625 6.75C9.40625 6.39453 9.67969 6.09375 10.0625 6.09375ZM13.125 12.875C13.5898 12.875 14 12.4922 14 12V10.25C14 9.78516 13.5898 9.375 13.125 9.375H0.875C0.382812 9.375 0 9.78516 0 10.25V12C0 12.4922 0.382812 12.875 0.875 12.875H13.125ZM11.8125 10.4688C12.168 10.4688 12.4688 10.7695 12.4688 11.125C12.4688 11.5078 12.168 11.7812 11.8125 11.7812C11.4297 11.7812 11.1562 11.5078 11.1562 11.125C11.1562 10.7695 11.4297 10.4688 11.8125 10.4688ZM10.0625 10.4688C10.418 10.4688 10.7188 10.7695 10.7188 11.125C10.7188 11.5078 10.418 11.7812 10.0625 11.7812C9.67969 11.7812 9.40625 11.5078 9.40625 11.125C9.40625 10.7695 9.67969 10.4688 10.0625 10.4688Z" fill="#FBBB32"/>
</svg>
