<svg width="20" height="16" viewBox="0 0 20 16" fill="none" xmlns="http://www.w3.org/2000/svg">
<path d="M1 5.15625C1 5.64844 1.35156 6 1.84375 6H14.5V7.6875C14.5 8.46094 15.3789 8.8125 15.9062 8.28516L18.7188 5.47266C19.0703 5.15625 19.0703 4.62891 18.7188 4.3125L15.9062 1.5C15.3789 0.9375 14.5 1.32422 14.5 2.0625V3.75H1.84375C1.35156 3.75 1 4.13672 1 4.59375V5.15625ZM18.1562 10.5H5.5V8.8125C5.5 8.07422 4.58594 7.6875 4.05859 8.25L1.24609 11.0625C0.894531 11.3789 0.894531 11.9062 1.24609 12.2227L4.05859 15.0352C4.58594 15.5625 5.5 15.2109 5.5 14.4375V12.75H18.1562C18.6133 12.75 19 12.3984 19 11.9062V11.3438C19 10.8867 18.6133 10.5 18.1562 10.5Z" fill="#9DC0F4"/>
</svg>
