<svg width="13" height="13" viewBox="0 0 13 13" fill="none" xmlns="http://www.w3.org/2000/svg">
<path d="M12.4766 7.25H6.92188L10.625 10.9766C10.7656 11.1172 11 11.1172 11.1406 10.9766C12.0547 10.1328 12.6875 8.98438 12.8516 7.67188C12.8984 7.46094 12.7109 7.25 12.4766 7.25ZM12.1016 5.75C11.9141 2.9375 9.6875 0.710938 6.875 0.523438C6.66406 0.5 6.5 0.6875 6.5 0.898438V6.125H11.7266C11.9375 6.125 12.125 5.96094 12.1016 5.75ZM5.375 7.25V1.69531C5.375 1.48438 5.16406 1.29688 4.95312 1.32031C2.14062 1.71875 0.0078125 4.15625 0.125 7.08594C0.21875 10.0859 2.79688 12.5469 5.82031 12.5C6.99219 12.5 8.09375 12.125 8.98438 11.4688C9.17188 11.3516 9.17188 11.0703 9.00781 10.9062L5.375 7.25Z" fill="white"/>
</svg>
