<svg width="11" height="13" viewBox="0 0 11 13" fill="none" xmlns="http://www.w3.org/2000/svg">
<path d="M7.82031 1.71875C7.32812 2.16406 6.88281 2.63281 6.50781 3.125C5.875 2.23438 5.07812 1.34375 4.1875 0.5C1.86719 2.65625 0.25 5.42188 0.25 7.10938C0.25 10.0859 2.59375 12.5 5.5 12.5C8.38281 12.5 10.75 10.0859 10.75 7.10938C10.75 5.86719 9.53125 3.28906 7.82031 1.71875ZM7.375 9.6875C6.85938 10.0625 6.22656 10.25 5.54688 10.25C3.85938 10.25 2.5 9.14844 2.5 7.32031C2.5 6.42969 3.0625 5.63281 4.1875 4.25C4.35156 4.4375 6.50781 7.20312 6.50781 7.20312L7.89062 5.63281C7.98438 5.79688 8.07812 5.96094 8.14844 6.10156C8.78125 7.32031 8.52344 8.89062 7.375 9.6875Z" fill="white"/>
</svg>
