<svg width="9" height="13" viewBox="0 0 9 13" fill="none" xmlns="http://www.w3.org/2000/svg">
<path d="M8.39062 0.59375L7.5 1.625L6.21094 0.59375C6.14062 0.546875 6.07031 0.5 6 0.5C5.90625 0.5 5.83594 0.546875 5.76562 0.59375L4.5 1.625L3.21094 0.59375C3.14062 0.546875 3.07031 0.5 3 0.5C2.90625 0.5 2.83594 0.546875 2.76562 0.59375L1.5 1.625L0.585938 0.59375C0.351562 0.40625 0 0.570312 0 0.875V12.125C0 12.4531 0.351562 12.6172 0.585938 12.4297L1.5 11.375L2.76562 12.4297C2.83594 12.4766 2.90625 12.5234 2.97656 12.5234C3.07031 12.5234 3.14062 12.4766 3.21094 12.4297L4.5 11.375L5.76562 12.4297C5.83594 12.4766 5.90625 12.5234 5.97656 12.5234C6.07031 12.5234 6.14062 12.4766 6.21094 12.4297L7.5 11.375L8.39062 12.4297C8.625 12.6172 9 12.4531 9 12.125V0.875C9 0.570312 8.64844 0.40625 8.39062 0.59375ZM7.5 8.9375C7.5 9.05469 7.40625 9.125 7.3125 9.125H1.6875C1.57031 9.125 1.5 9.05469 1.5 8.9375V8.5625C1.5 8.46875 1.57031 8.375 1.6875 8.375H7.3125C7.40625 8.375 7.5 8.46875 7.5 8.5625V8.9375ZM7.5 6.6875C7.5 6.80469 7.40625 6.875 7.3125 6.875H1.6875C1.57031 6.875 1.5 6.80469 1.5 6.6875V6.3125C1.5 6.21875 1.57031 6.125 1.6875 6.125H7.3125C7.40625 6.125 7.5 6.21875 7.5 6.3125V6.6875ZM7.5 4.4375C7.5 4.55469 7.40625 4.625 7.3125 4.625H1.6875C1.57031 4.625 1.5 4.55469 1.5 4.4375V4.0625C1.5 3.96875 1.57031 3.875 1.6875 3.875H7.3125C7.40625 3.875 7.5 3.96875 7.5 4.0625V4.4375Z" fill="white"/>
</svg>
