<svg width="13" height="13" viewBox="0 0 13 13" fill="none" xmlns="http://www.w3.org/2000/svg">
<path d="M12.3359 0.96875C12.2891 0.828125 12.1719 0.710938 12.0312 0.664062C11.2812 0.5 10.6953 0.5 10.1094 0.5C7.69531 0.5 6.24219 1.8125 5.16406 3.5H2.70312C2.32812 3.52344 1.88281 3.78125 1.69531 4.13281L0.546875 6.45312C0.523438 6.52344 0.5 6.61719 0.5 6.6875C0.5 7.01562 0.734375 7.25 1.0625 7.25H3.47656L2.96094 7.78906C2.67969 8.04688 2.65625 8.53906 2.96094 8.84375L4.15625 10.0391C4.41406 10.2969 4.90625 10.3438 5.21094 10.0391L5.72656 9.52344V11.9375C5.75 12.2656 5.98438 12.5 6.3125 12.5C6.38281 12.5 6.47656 12.4766 6.54688 12.4531L8.86719 11.3047C9.21875 11.1172 9.47656 10.6719 9.47656 10.2969V7.83594C11.1875 6.75781 12.4766 5.30469 12.4766 2.89062C12.5 2.30469 12.5 1.71875 12.3359 0.96875ZM9.5 4.4375C8.96094 4.4375 8.5625 4.03906 8.5625 3.5C8.5625 2.98438 8.96094 2.5625 9.5 2.5625C10.0156 2.5625 10.4375 2.98438 10.4375 3.5C10.4375 4.03906 10.0156 4.4375 9.5 4.4375Z" fill="#FF980F"/>
</svg>
