<svg width="12" height="13" viewBox="0 0 12 13" fill="none" xmlns="http://www.w3.org/2000/svg">
<path d="M11.8359 0.96875C11.7891 0.828125 11.6719 0.710938 11.5312 0.664062C10.7812 0.5 10.1953 0.5 9.60938 0.5C7.19531 0.5 5.74219 1.8125 4.66406 3.5H2.20312C1.82812 3.52344 1.38281 3.78125 1.19531 4.13281L0.046875 6.45312C0.0234375 6.52344 0 6.61719 0 6.6875C0 7.01562 0.234375 7.25 0.5625 7.25H2.97656L2.46094 7.78906C2.17969 8.04688 2.15625 8.53906 2.46094 8.84375L3.65625 10.0391C3.91406 10.2969 4.40625 10.3438 4.71094 10.0391L5.22656 9.52344V11.9375C5.25 12.2656 5.48438 12.5 5.8125 12.5C5.88281 12.5 5.97656 12.4766 6.04688 12.4531L8.36719 11.3047C8.71875 11.1172 8.97656 10.6719 8.97656 10.2969V7.83594C10.6875 6.75781 11.9766 5.30469 11.9766 2.89062C12 2.30469 12 1.71875 11.8359 0.96875ZM9 4.4375C8.46094 4.4375 8.0625 4.03906 8.0625 3.5C8.0625 2.98438 8.46094 2.5625 9 2.5625C9.51562 2.5625 9.9375 2.98438 9.9375 3.5C9.9375 4.03906 9.51562 4.4375 9 4.4375Z" fill="#EB71FF"/>
</svg>
